<svg xmlns="http://www.w3.org/2000/svg" viewBox="0 0 512 512">
  <defs>
    <linearGradient id="dream-blue" x1="82" y1="42" x2="430" y2="478" gradientUnits="userSpaceOnUse">
      <stop offset="0" stop-color="#4c52ff"/>
      <stop offset=".52" stop-color="#2f34ff"/>
      <stop offset="1" stop-color="#11157a"/>
    </linearGradient>
    <linearGradient id="gold" x1="160" y1="142" x2="360" y2="386" gradientUnits="userSpaceOnUse">
      <stop offset="0" stop-color="#fff2a2"/>
      <stop offset=".48" stop-color="#ffd13f"/>
      <stop offset="1" stop-color="#f0a313"/>
    </linearGradient>
    <filter id="shadow" x="-20%" y="-20%" width="140%" height="150%" color-interpolation-filters="sRGB">
      <feDropShadow dx="0" dy="18" stdDeviation="18" flood-color="#070a44" flood-opacity=".32"/>
    </filter>
  </defs>
  <rect width="512" height="512" rx="112" fill="url(#dream-blue)"/>
  <path d="M370 108c11 54 43 86 96 96-53 11-85 43-96 96-10-53-42-85-96-96 54-10 86-42 96-96Z" fill="#ffffff" opacity=".95"/>
  <rect x="112" y="154" width="236" height="176" rx="36" fill="#ffffff" opacity=".18"/>
  <rect x="154" y="112" width="236" height="176" rx="36" fill="#ffffff" opacity=".28"/>
  <rect x="122" y="174" width="268" height="204" rx="42" fill="#ffffff" opacity=".96" filter="url(#shadow)"/>
  <path d="M222 213c0-14 15-23 28-16l100 58c13 8 13 26 0 34l-100 58c-13 7-28-2-28-16V213Z" fill="url(#gold)"/>
  <path d="M133 399h246" stroke="#ffd13f" stroke-width="24" stroke-linecap="round"/>
</svg>
