<?xml version="1.0" encoding="UTF-8"?>
<svg id="Layer_2" data-name="Layer 2" xmlns="http://www.w3.org/2000/svg" viewBox="0 0 500 500">
  <defs>
    <style>
      .cls-1 {
        fill: #fff;
      }

      .cls-2 {
        fill: #2d32ff;
      }
    </style>
  </defs>
  <rect class="cls-2" width="500" height="500"/>
  <path class="cls-1" d="M382.67,126.25c-19.2-25.26-46.77-44.58-78.21-50.6-15.91-3.05-31.93-1.68-48.01-1.68H96.37c-4.04,0-7.33,3.28-7.33,7.33v337.71c0,4.05,3.29,7.33,7.33,7.33h86.99c4.05,0,7.33-3.28,7.33-7.33v-64.53c0-5.22,4.23-9.45,9.45-9.45h22.43l74.91-1.65c18.61-2.8,38.04-9.41,53.69-20.32,17.73-12.36,32.53-28.81,42.91-47.76,10.46-19.11,16.32-40.63,16.85-62.41.75-31.1-9.46-61.9-28.26-86.64ZM322.43,221.34l-108.81,65.81c-9.46,5.72-21.54-1.09-21.54-12.14v-131.63c0-11.06,12.08-17.87,21.54-12.15l108.81,65.82c9.12,5.52,9.12,18.76,0,24.29Z"/>
</svg>
